<svg xmlns="http://www.w3.org/2000/svg" style="display:none" aria-hidden="true">
  <!-- Greyscale-safe, print-safe icon set for Bounded Agents navigation.
       Build injects the same paths inline (see build/icons.py) for PDF reliability.
       currentColor inherits from CSS. -->
  <symbol id="i-compass" viewBox="0 0 24 24" fill="none" stroke="currentColor" stroke-width="1.5">
    <circle cx="12" cy="12" r="9"/>
    <path d="M12 3v2M12 19v2M3 12h2M19 12h2"/>
    <path d="M12 8l2.5 6H9.5L12 8z" fill="currentColor" stroke="none"/>
  </symbol>
  <symbol id="i-book" viewBox="0 0 24 24" fill="none" stroke="currentColor" stroke-width="1.5">
    <path d="M5 4.5h9.5A2.5 2.5 0 0 1 17 7v12.5H7.5A2.5 2.5 0 0 0 5 22V4.5z"/>
    <path d="M5 4.5A2.5 2.5 0 0 1 7.5 2H17"/>
    <path d="M9 8h5M9 11.5h5"/>
  </symbol>
  <symbol id="i-wrench" viewBox="0 0 24 24" fill="none" stroke="currentColor" stroke-width="1.5" stroke-linejoin="round">
    <path d="M14.5 6.5a3.5 3.5 0 0 0-4.7 4.7L4 17v3h3l5.8-5.8a3.5 3.5 0 0 0 4.7-4.7l-2.2 1.2-2.8-2.8 1-2.4z"/>
  </symbol>
  <symbol id="i-stop" viewBox="0 0 24 24" fill="none" stroke="currentColor" stroke-width="1.5">
    <path d="M8 3h8l5 5v8l-5 5H8l-5-5V8l5-5z"/>
    <path d="M8.5 12h7" stroke-width="1.8" stroke-linecap="round"/>
  </symbol>
  <symbol id="i-edge" viewBox="0 0 24 24" fill="none" stroke="currentColor" stroke-width="1.5">
    <path d="M4 8V4h4M20 8V4h-4M4 16v4h4M20 16v4h-4"/>
    <path d="M9 12h2.5L14 9.5 16.5 12H19" stroke-linecap="round" stroke-linejoin="round"/>
  </symbol>
  <symbol id="i-link" viewBox="0 0 24 24" fill="none" stroke="currentColor" stroke-width="1.5" stroke-linecap="round">
    <path d="M9.5 14.5l5-5"/>
    <path d="M11 16.5l-1.2 1.2a3.2 3.2 0 0 1-4.5-4.5L6.5 12"/>
    <path d="M13 7.5l1.2-1.2a3.2 3.2 0 0 1 4.5 4.5L17.5 12"/>
  </symbol>
  <symbol id="i-path" viewBox="0 0 24 24" fill="none" stroke="currentColor" stroke-width="1.5">
    <circle cx="6" cy="18" r="2"/>
    <circle cx="18" cy="6" r="2"/>
    <path d="M7.5 16.5C10 14 10 10 12 9s4-1 5.5-2.5" stroke-linecap="round"/>
  </symbol>
</svg>
